<?xml version="1.0" standalone="no"?>
<!DOCTYPE svg PUBLIC "-//W3C//DTD SVG 20010904//EN"
 "http://www.w3.org/TR/2001/REC-SVG-20010904/DTD/svg10.dtd">
<svg version="1.0" xmlns="http://www.w3.org/2000/svg"
 width="900.000000pt" height="900.000000pt" viewBox="0 0 900.000000 900.000000"
 preserveAspectRatio="xMidYMid meet">
<metadata>
Created by potrace 1.10, written by Peter Selinger 2001-2011
</metadata>
<g transform="translate(0.000000,900.000000) scale(0.100000,-0.100000)"
fill="#000000" stroke="none">
<path d="M4050 7461 c-62 -10 -160 -44 -210 -72 -8 -5 -24 -13 -35 -18 -11 -6
-54 -36 -95 -68 -111 -87 -170 -165 -250 -334 -4 -8 -17 -50 -29 -92 -23 -86
-30 -283 -11 -347 6 -19 15 -53 20 -75 12 -54 33 -112 71 -187 100 -204 224
-348 614 -713 94 -87 278 -268 410 -401 132 -132 255 -249 273 -258 30 -16 35
-16 72 1 26 12 144 121 343 318 167 165 407 401 534 525 291 285 365 381 457
595 33 77 76 275 76 350 0 22 -5 60 -11 85 -6 25 -14 65 -19 90 -11 64 -54
170 -90 225 -11 17 -24 39 -29 50 -14 31 -120 136 -186 186 -63 47 -152 93
-245 125 -80 28 -350 28 -430 0 -152 -53 -243 -109 -351 -218 -43 -43 -81 -78
-85 -78 -4 0 -35 29 -68 63 -106 110 -220 184 -361 232 -56 18 -287 29 -365
16z m275 -235 c127 -27 256 -120 362 -260 75 -98 119 -136 160 -136 38 0 64
22 138 115 76 97 198 209 260 239 191 93 436 68 595 -62 96 -79 152 -159 190
-272 38 -112 25 -310 -27 -430 -72 -164 -128 -236 -373 -480 -525 -521 -770
-760 -781 -760 -7 0 -80 69 -164 153 -83 83 -223 219 -311 302 -185 173 -475
462 -523 520 -74 89 -146 214 -184 320 -18 50 -21 83 -22 200 0 145 2 154 53
265 38 81 144 193 212 223 8 4 22 11 30 16 92 55 257 75 385 47z"/>
<path d="M3130 4648 c-146 -24 -287 -80 -470 -188 -52 -31 -102 -59 -110 -63
-17 -9 -37 -21 -95 -58 -22 -14 -47 -29 -55 -32 -8 -4 -27 -15 -42 -25 -15 -9
-59 -37 -98 -62 -39 -25 -82 -52 -95 -60 -13 -8 -56 -35 -95 -60 -39 -25 -82
-52 -95 -60 -75 -48 -168 -106 -183 -115 -9 -6 -44 -28 -77 -50 -72 -47 -95
-62 -115 -71 -46 -23 -131 -88 -149 -113 -24 -34 -27 -87 -7 -128 18 -36 39
-86 61 -143 10 -25 23 -58 30 -75 7 -16 21 -50 30 -75 10 -25 24 -60 31 -77 8
-18 20 -48 28 -65 7 -18 21 -53 31 -78 9 -25 23 -58 30 -75 7 -16 20 -50 30
-75 9 -25 23 -58 30 -75 7 -16 20 -50 30 -75 10 -25 23 -58 30 -75 7 -16 21
-50 30 -75 10 -25 23 -58 30 -75 7 -16 21 -50 30 -75 10 -25 23 -58 30 -75 7
-16 21 -50 30 -75 35 -91 66 -149 87 -164 40 -28 111 -20 186 21 69 38 123 69
157 91 11 6 29 17 40 22 11 6 34 19 50 30 17 11 37 23 45 27 8 4 58 32 110 63
52 31 102 59 110 63 8 4 29 16 45 27 61 40 161 83 204 88 23 3 75 -2 115 -11
39 -9 107 -24 151 -32 44 -9 112 -22 150 -30 39 -8 104 -20 145 -29 41 -8 109
-21 150 -30 41 -8 113 -22 160 -31 47 -9 114 -23 150 -30 36 -8 103 -21 150
-30 47 -9 114 -22 150 -30 36 -7 101 -20 145 -29 44 -8 115 -22 158 -30 191
-39 463 -2 672 89 51 22 119 55 140 68 96 58 183 118 317 216 143 107 222 163
458 331 47 33 134 95 193 138 59 42 152 109 207 147 55 39 148 105 207 147
222 160 321 230 418 301 55 39 125 89 156 110 155 104 229 223 229 365 0 80
-19 155 -57 227 -30 58 -122 146 -184 179 -64 33 -178 65 -234 66 -44 0 -179
-31 -210 -48 -11 -6 -27 -13 -35 -16 -8 -4 -37 -20 -65 -37 -27 -16 -63 -37
-80 -45 -16 -8 -43 -23 -60 -34 -16 -11 -37 -23 -45 -27 -8 -4 -46 -26 -85
-48 -38 -23 -77 -45 -85 -49 -8 -4 -24 -12 -35 -19 -11 -7 -51 -30 -90 -52
-38 -22 -79 -45 -90 -52 -11 -7 -27 -16 -35 -20 -8 -4 -46 -26 -85 -48 -38
-23 -77 -44 -85 -48 -8 -4 -22 -11 -30 -17 -34 -22 -171 -100 -177 -100 -4 0
-14 -7 -24 -16 -26 -24 -39 -9 -39 44 0 49 -28 144 -49 165 -6 6 -11 16 -11
23 0 19 -123 127 -171 150 -129 63 -79 58 -639 65 -283 4 -535 11 -560 16 -57
12 -117 31 -153 49 -16 8 -35 14 -42 14 -7 0 -27 7 -44 15 -17 8 -45 22 -62
30 -17 8 -38 15 -48 15 -9 0 -22 5 -28 11 -6 6 -26 14 -44 19 -19 4 -47 13
-64 18 -60 21 -142 41 -206 51 -79 13 -451 12 -529 -1z m548 -234 c37 -9 82
-23 100 -30 18 -8 39 -14 47 -14 8 0 29 -6 47 -14 18 -8 53 -22 78 -31 25 -9
59 -23 75 -30 31 -13 84 -33 145 -55 19 -6 53 -16 75 -20 22 -5 53 -13 69 -20
20 -7 184 -10 519 -10 440 0 496 -2 550 -17 76 -23 140 -81 157 -144 17 -60 6
-162 -20 -205 -30 -47 -97 -102 -139 -114 -22 -6 -310 -10 -753 -10 -488 0
-724 -3 -740 -11 -38 -17 -61 -58 -61 -107 0 -39 5 -50 36 -79 l37 -33 727 0
c688 0 731 1 788 19 70 22 118 44 160 71 17 11 44 26 60 34 17 8 53 29 80 45
28 17 59 35 70 41 11 6 36 20 55 31 19 12 55 32 80 46 25 13 59 33 75 44 17
10 39 23 50 29 11 6 36 20 55 31 19 12 55 32 80 46 25 13 52 28 60 33 29 19
165 96 180 103 8 4 29 16 45 26 17 11 50 31 75 44 25 14 61 34 80 46 19 11 44
25 55 31 11 6 43 24 70 41 28 16 64 37 80 45 17 8 44 23 60 34 17 11 63 35
103 55 63 31 82 35 148 35 80 0 113 -12 167 -60 91 -81 99 -207 19 -287 -21
-21 -87 -73 -147 -116 -255 -180 -461 -327 -628 -447 -214 -153 -485 -347
-631 -450 -58 -41 -189 -137 -291 -212 -101 -76 -187 -138 -189 -138 -2 0 -28
-16 -57 -36 -96 -64 -218 -117 -359 -156 -99 -27 -358 -30 -465 -5 -38 9 -105
23 -147 31 -127 26 -218 44 -303 61 -118 24 -209 42 -305 60 -82 16 -143 28
-305 60 -41 8 -109 22 -150 30 -41 8 -110 23 -152 33 -52 11 -118 17 -198 16
-118 0 -121 -1 -195 -38 -41 -20 -88 -46 -105 -56 -16 -11 -39 -24 -50 -30
-11 -5 -47 -26 -80 -45 -33 -19 -69 -39 -80 -45 -11 -6 -42 -24 -70 -41 -27
-16 -63 -37 -80 -45 -16 -8 -43 -23 -60 -34 -94 -59 -125 -68 -125 -35 0 8 -7
31 -16 52 -28 64 -41 96 -59 143 -10 25 -23 59 -30 75 -8 17 -28 66 -45 110
-17 44 -37 94 -45 110 -7 17 -20 50 -30 75 -9 25 -23 59 -30 75 -7 17 -20 50
-30 75 -10 25 -23 59 -30 75 -7 17 -21 50 -30 75 -10 25 -23 59 -30 75 -7 17
-21 50 -30 75 -10 25 -23 56 -30 70 -25 51 -26 76 -2 97 23 21 102 74 127 86
8 4 27 15 41 25 15 9 59 37 98 62 40 25 83 52 96 60 13 8 56 35 95 60 39 25
82 52 94 60 13 8 56 35 95 60 40 25 83 52 96 60 29 19 332 201 360 217 89 50
202 98 270 114 22 5 56 13 75 18 19 5 129 9 243 10 161 1 224 -3 275 -15z"/>
</g>
</svg>
