<?xml version="1.0" standalone="no"?>
<!DOCTYPE svg PUBLIC "-//W3C//DTD SVG 20010904//EN"
 "http://www.w3.org/TR/2001/REC-SVG-20010904/DTD/svg10.dtd">
<svg version="1.0" xmlns="http://www.w3.org/2000/svg"
 width="300.000000pt" height="300.000000pt" viewBox="0 0 300.000000 300.000000"
 preserveAspectRatio="xMidYMid meet">
<metadata>
Created by potrace 1.10, written by Peter Selinger 2001-2011
</metadata>
<g transform="translate(0.000000,300.000000) scale(0.050000,-0.050000)"
fill="#000000" stroke="none">
<path d="M2064 4979 c-69 -41 -124 -142 -124 -225 0 -47 -4 -48 -237 -59 -310
-14 -426 -72 -530 -265 -43 -79 -43 -89 -49 -1476 -7 -1712 -8 -1701 254
-1838 l107 -56 1512 0 c1689 1 1593 -7 1741 141 127 127 122 56 122 1679 0
1623 6 1534 -117 1667 -98 106 -184 134 -444 147 l-239 12 0 62 c0 144 -148
270 -286 244 -122 -23 -217 -166 -196 -297 1 -8 -254 -15 -568 -15 l-570 0 0
45 c-2 202 -214 334 -376 234z m197 -180 c40 -75 23 -435 -22 -480 -89 -89
-128 -19 -135 243 -7 272 73 393 157 237z m1608 30 c39 -40 46 -466 7 -505
-44 -44 -115 -28 -138 31 -37 95 -14 444 32 477 48 36 60 35 99 -3z m-1925
-425 c26 -371 461 -367 492 5 l9 111 567 0 568 0 0 -118 c0 -144 59 -229 181
-262 165 -45 299 78 299 275 l0 105 222 0 c336 0 426 -75 427 -359 l1 -151
-1710 0 -1710 0 1 150 c3 290 85 360 422 360 l222 0 9 -116z m2772 -1704 c7
-1261 4 -1301 -107 -1398 -98 -86 -60 -84 -1663 -78 -1647 7 -1520 -6 -1616
158 -39 66 -77 2339 -41 2432 8 21 325 25 1715 21 l1706 -5 6 -1130z"/>
</g>
</svg>
