<?xml version="1.0" standalone="no"?>
<!DOCTYPE svg PUBLIC "-//W3C//DTD SVG 20010904//EN"
 "http://www.w3.org/TR/2001/REC-SVG-20010904/DTD/svg10.dtd">
<svg version="1.0" xmlns="http://www.w3.org/2000/svg"
 width="300.000000pt" height="300.000000pt" viewBox="0 0 300.000000 300.000000"
 preserveAspectRatio="xMidYMid meet">
<metadata>
Created by potrace 1.10, written by Peter Selinger 2001-2011
</metadata>
<g transform="translate(0.000000,300.000000) scale(0.100000,-0.100000)"
fill="#000000" stroke="none">
<path d="M1032 2490 c-35 -22 -62 -72 -62 -117 l0 -28 -118 -1 c-130 -2 -171
-15 -224 -71 -65 -68 -63 -37 -66 -801 -2 -450 1 -713 8 -750 13 -76 52 -129
119 -164 l53 -28 757 0 c844 0 796 -3 870 71 64 63 61 27 61 839 0 811 3 767
-59 833 -52 56 -94 70 -223 71 l-118 1 0 35 c0 75 -72 139 -142 126 -50 -9
-91 -56 -98 -112 l-5 -45 -283 -2 -282 -2 0 24 c0 44 -38 108 -74 125 -45 21
-74 20 -114 -4z m92 -82 c12 -17 16 -48 16 -119 0 -109 -4 -125 -32 -140 -15
-8 -24 -7 -39 7 -17 15 -19 31 -19 127 0 89 3 114 17 129 21 24 39 23 57 -4z
m807 12 c17 -10 19 -22 19 -130 0 -94 -3 -122 -16 -134 -20 -21 -30 -20 -55 5
-19 19 -20 30 -17 131 3 95 6 112 22 124 24 17 22 17 47 4z m-921 -121 c0 -23
-28 -26 -37 -3 -6 16 15 37 29 28 4 -3 8 -14 8 -25z m199 18 c8 -11 6 -18 -9
-32 -20 -18 -20 -17 -20 13 0 34 10 41 29 19z m611 -12 c0 -27 -12 -32 -29
-12 -8 10 -7 17 1 25 19 19 28 14 28 -13z m207 9 c3 -8 -1 -23 -10 -32 -15
-14 -17 -14 -23 1 -8 21 1 47 16 47 6 0 13 -7 17 -16z m-1055 -112 c5 -75 34
-117 89 -132 33 -9 46 -8 76 7 56 27 78 65 78 129 l0 54 288 0 287 0 0 -59 c0
-49 4 -65 26 -90 35 -41 91 -57 138 -37 49 20 76 68 76 134 l0 52 113 0 c93 0
117 -3 144 -20 46 -28 66 -73 71 -162 l5 -78 -863 0 -863 0 5 78 c5 89 25 134
71 162 27 17 51 20 143 20 l112 0 4 -58z m-332 -247 c0 -7 -7 -15 -15 -19 -11
-4 -15 2 -15 26 0 26 2 29 15 18 8 -7 15 -18 15 -25z m1750 5 c0 -22 -4 -28
-15 -24 -18 7 -19 26 -3 42 17 17 18 16 18 -18z m-32 -644 c-3 -593 -3 -605
-24 -632 -11 -15 -33 -37 -48 -48 -27 -21 -35 -21 -786 -21 -751 0 -759 0
-786 21 -15 11 -37 33 -48 48 -21 27 -21 39 -24 632 l-3 604 861 0 861 0 -3
-604z"/>
<path d="M752 1718 c-21 -21 -13 -37 38 -74 28 -20 50 -43 50 -52 0 -10 -5
-113 -11 -230 -12 -222 -9 -242 30 -242 9 0 97 72 196 160 99 88 184 160 190
160 26 0 45 -34 113 -190 107 -250 111 -259 131 -269 13 -7 23 -6 33 2 8 7 54
107 103 222 81 196 103 235 129 235 6 0 92 -72 191 -160 99 -88 187 -160 196
-160 38 0 40 19 28 256 l-11 229 28 20 c69 50 80 63 68 82 -19 31 -46 25 -119
-23 -158 -104 -311 -163 -495 -190 -97 -14 -132 -15 -227 -5 -186 19 -390 91
-543 191 -79 52 -98 58 -118 38z m336 -231 l62 -23 -102 -89 c-57 -50 -113
-100 -126 -112 -12 -13 -25 -23 -27 -23 -1 0 -1 17 1 38 2 20 6 94 10 164 l6
127 58 -30 c31 -16 85 -39 118 -52z m1007 -87 c7 -162 7 -165 -11 -144 -11 11
-67 63 -126 114 l-108 93 84 32 c45 17 98 41 117 52 18 12 34 21 35 20 1 -1 5
-76 9 -167z m-751 54 c13 -5 14 -9 5 -20 -9 -11 -15 -11 -25 -3 -27 22 -14 36
20 23z m333 -21 c-15 -15 -37 -11 -37 7 0 10 31 19 43 12 5 -2 2 -11 -6 -19z
m-50 -24 c-1 -3 -29 -71 -62 -152 -33 -81 -62 -147 -65 -147 -4 0 -93 208
-128 299 -1 3 56 6 128 6 71 0 129 -3 127 -6z m505 -221 c-8 -8 -15 -8 -27 2
-14 12 -14 15 2 32 17 19 18 19 27 -2 6 -14 6 -24 -2 -32z m-1237 17 c0 -11
-8 -21 -17 -23 -14 -3 -18 3 -18 23 0 20 4 26 18 23 9 -2 17 -12 17 -23z m628
-132 c-11 -31 -15 -34 -29 -22 -20 16 -17 27 9 32 12 2 23 5 24 6 1 0 0 -7 -4
-16z"/>
</g>
</svg>
