<svg xmlns="http://www.w3.org/2000/svg" width="1024" height="1024" viewBox="0 0 1024 1024">
<path d="M 371 167 370 168 364 168 363 169 360 169 359 170 358 170 357 171 356 171 355 172 354 172 353 173 352 173 351 174 350 174 347 177 346 177 342 181 342 182 339 185 339 186 337 188 337 189 336 190 336 191 335 192 335 193 334 194 334 196 333 197 333 199 332 200 332 204 331 205 331 215 330 216 330 222 329 223 267 223 266 224 256 224 255 225 251 225 250 226 247 226 246 227 244 227 243 228 241 228 240 229 239 229 238 230 237 230 236 231 235 231 234 232 233 232 232 233 231 233 230 234 229 234 227 236 226 236 223 239 222 239 217 244 216 244 216 245 208 253 208 254 206 256 206 257 204 259 204 260 203 261 203 262 201 264 201 266 200 267 200 268 199 269 199 270 198 271 198 272 197 273 197 275 196 276 196 279 195 280 195 283 194 284 194 288 193 289 193 296 192 297 192 770 193 771 193 778 194 779 194 783 195 784 195 787 196 788 196 790 197 791 197 793 198 794 198 795 199 796 199 797 200 798 200 799 201 800 201 801 202 802 202 803 203 804 203 805 205 807 205 808 207 810 207 811 213 817 213 818 216 821 217 821 222 826 223 826 226 829 227 829 229 831 230 831 231 832 232 832 233 833 234 833 235 834 236 834 237 835 238 835 239 836 240 836 241 837 242 837 243 838 245 838 246 839 248 839 249 840 251 840 252 841 255 841 256 842 261 842 262 843 761 843 762 842 766 842 767 841 771 841 772 840 774 840 775 839 777 839 778 838 780 838 781 837 782 837 783 836 785 836 787 834 788 834 789 833 790 833 791 832 792 832 794 830 795 830 797 828 798 828 801 825 802 825 815 812 815 811 817 809 817 808 819 806 819 805 821 803 821 802 822 801 822 800 823 799 823 798 824 797 824 796 825 795 825 793 826 792 826 790 827 789 827 788 828 787 828 783 829 782 829 778 830 777 830 288 829 287 829 283 828 282 828 279 827 278 827 276 826 275 826 273 825 272 825 271 824 270 824 268 823 267 823 266 822 265 822 264 820 262 820 261 819 260 819 259 817 257 817 256 814 253 814 252 802 240 801 240 798 237 797 237 795 235 794 235 792 233 791 233 790 232 789 232 788 231 787 231 786 230 785 230 784 229 782 229 781 228 780 228 779 227 777 227 776 226 772 226 771 225 766 225 765 224 757 224 756 223 694 223 693 222 693 206 692 205 692 201 691 200 691 197 690 196 690 195 689 194 689 192 688 191 688 190 686 188 686 187 685 186 685 185 675 175 674 175 672 173 671 173 670 172 669 172 668 171 667 171 666 170 664 170 663 169 661 169 660 168 655 168 654 167 648 167 647 168 642 168 641 169 638 169 637 170 636 170 635 171 633 171 632 172 631 172 629 174 628 174 625 177 624 177 619 182 619 183 617 185 617 186 615 188 615 189 614 190 614 191 613 192 613 194 612 195 612 197 611 198 611 201 610 202 610 206 609 207 609 222 608 223 416 223 415 222 415 208 414 207 414 202 413 201 413 198 412 197 412 195 411 194 411 193 410 192 410 191 409 190 409 189 408 188 408 187 405 184 405 183 398 176 397 176 395 174 394 174 392 172 391 172 390 171 388 171 387 170 386 170 385 169 382 169 381 168 376 168 375 167 Z" fill="black"/>
</svg>