<?xml version="1.0" standalone="no"?>
<!DOCTYPE svg PUBLIC "-//W3C//DTD SVG 20010904//EN"
 "http://www.w3.org/TR/2001/REC-SVG-20010904/DTD/svg10.dtd">
<svg version="1.0" xmlns="http://www.w3.org/2000/svg"
 width="300.000000pt" height="266.000000pt" viewBox="0 0 300.000000 266.000000"
 preserveAspectRatio="xMidYMid meet">
<metadata>
Created by potrace 1.10, written by Peter Selinger 2001-2011
</metadata>
<g transform="translate(0.000000,266.000000) scale(0.100000,-0.100000)"
fill="#000000" stroke="none">
<path d="M1752 2329 c178 -91 353 -350 374 -554 2 -22 6 -60 9 -85 7 -61 -12
-200 -41 -291 -41 -130 -168 -301 -283 -378 -122 -83 -254 -135 -375 -148
l-68 -8 71 -49 c45 -30 105 -59 163 -79 84 -27 105 -30 218 -31 110 0 134 3
204 28 205 70 353 209 432 405 33 82 44 147 44 265 0 85 -7 135 -35 256 -20
89 -112 266 -186 356 -112 136 -286 254 -465 314 -112 38 -135 37 -62 -1z
m333 -162 c65 -50 193 -185 232 -246 106 -164 158 -335 157 -521 -1 -124 -14
-195 -50 -275 -45 -97 -68 -130 -159 -219 -118 -116 -270 -177 -447 -177 -109
0 -192 18 -283 61 -92 43 -97 54 -27 69 174 37 356 146 454 271 15 19 34 44
43 55 107 134 149 266 149 475 0 119 -4 146 -28 225 -37 121 -110 248 -192
335 -18 19 -31 37 -28 41 5 9 127 -55 179 -94z"/>
<path d="M1240 2330 c-187 -24 -401 -162 -539 -348 -150 -203 -226 -487 -192
-712 21 -134 23 -144 34 -170 9 -21 12 -8 18 80 11 163 67 300 176 433 48 58
171 167 190 167 6 0 13 3 15 8 6 14 143 71 213 88 96 24 286 24 380 0 81 -20
125 -38 220 -89 55 -30 187 -151 223 -207 l37 -54 8 44 c22 116 -15 303 -85
427 -51 92 -177 210 -278 261 -144 72 -264 92 -420 72z m230 -34 c14 -2 26 -5
28 -6 1 -2 5 -3 10 -4 215 -55 392 -220 456 -425 26 -83 41 -199 28 -218 -6
-9 -22 2 -57 36 -272 266 -643 324 -978 151 -168 -86 -301 -238 -387 -444 -11
-27 -23 -47 -25 -44 -3 3 -7 32 -9 64 -6 95 34 273 84 379 128 269 347 455
605 514 38 8 191 7 245 -3z"/>
<path d="M1025 1712 c-158 -83 -269 -215 -333 -395 -23 -63 -26 -88 -26 -202
0 -114 4 -140 27 -210 37 -110 90 -198 168 -275 108 -107 264 -186 437 -222
139 -29 348 -21 477 17 112 33 250 102 328 163 90 71 138 114 133 120 -3 2
-29 -9 -58 -25 -105 -59 -215 -84 -368 -84 -288 0 -546 155 -688 414 -73 132
-86 189 -87 362 0 158 16 239 67 338 11 22 18 40 16 42 -2 2 -44 -17 -93 -43z
m3 -103 c-20 -64 -23 -95 -23 -229 0 -141 3 -163 27 -241 66 -207 247 -411
445 -501 115 -52 203 -69 343 -67 148 1 178 3 187 12 3 4 13 7 22 7 25 -1 -24
-35 -104 -73 -156 -75 -290 -102 -465 -94 -136 7 -158 11 -259 43 -253 83
-406 228 -481 458 -30 91 -33 271 -6 361 45 151 143 285 269 366 33 22 62 37
64 35 2 -2 -6 -37 -19 -77z"/>
</g>
</svg>
