<svg xmlns="http://www.w3.org/2000/svg" width="1024" height="1024" viewBox="0 0 1024 1024">
<path d="M 368 492 367 493 359 493 358 494 353 494 352 495 349 495 348 496 345 496 344 497 341 497 340 498 338 498 337 499 335 499 334 500 333 500 332 501 330 501 329 502 328 502 327 503 325 503 324 504 323 504 322 505 321 505 320 506 319 506 318 507 317 507 316 508 315 508 314 509 313 509 312 510 311 510 309 512 308 512 307 513 306 513 304 515 303 515 302 516 301 516 299 518 298 518 297 519 296 519 295 520 294 520 292 522 291 522 290 523 289 523 287 525 286 525 285 526 284 526 282 528 281 528 280 529 279 529 277 531 276 531 274 533 273 533 272 534 271 534 269 536 268 536 267 537 266 537 264 539 263 539 262 540 261 540 259 542 258 542 256 544 255 544 254 545 253 545 251 547 250 547 248 549 247 549 245 551 244 551 243 552 242 552 240 554 239 554 237 556 236 556 235 557 234 557 232 559 231 559 229 561 228 561 226 563 225 563 224 564 223 564 221 566 220 566 219 567 218 567 216 569 215 569 213 571 212 571 210 573 209 573 207 575 206 575 205 576 204 576 202 578 201 578 199 580 198 580 196 582 195 582 194 583 193 583 191 585 190 585 188 587 187 587 186 588 185 588 183 590 182 590 180 592 179 592 177 594 176 594 175 595 174 595 172 597 171 597 165 603 165 604 164 605 164 614 165 615 165 617 166 618 166 619 167 620 167 621 168 622 168 624 169 625 169 626 170 627 170 629 171 630 171 631 172 632 172 634 173 635 173 636 174 637 174 639 175 640 175 641 176 642 176 644 177 645 177 646 178 647 178 649 179 650 179 651 180 652 180 654 181 655 181 656 182 657 182 659 183 660 183 661 184 662 184 664 185 665 185 666 186 667 186 668 187 669 187 671 188 672 188 673 189 674 189 676 190 677 190 678 191 679 191 681 192 682 192 683 193 684 193 686 194 687 194 688 195 689 195 691 196 692 196 693 197 694 197 696 198 697 198 698 199 699 199 701 200 702 200 703 201 704 201 706 202 707 202 708 203 709 203 711 204 712 204 713 205 714 205 716 206 717 206 718 207 719 207 721 208 722 208 723 209 724 209 726 210 727 210 728 211 729 211 731 212 732 212 733 213 734 213 736 214 737 214 738 215 739 215 741 216 742 216 743 217 744 217 746 218 747 218 748 219 749 219 751 220 752 220 753 221 754 221 756 222 757 222 758 223 759 223 761 224 762 224 763 225 764 225 766 226 767 226 768 227 769 227 771 228 772 228 773 229 774 229 775 234 780 235 780 236 781 246 781 247 780 249 780 250 779 251 779 252 778 253 778 255 776 256 776 257 775 258 775 259 774 260 774 262 772 263 772 264 771 265 771 267 769 268 769 269 768 270 768 271 767 272 767 274 765 275 765 276 764 277 764 279 762 280 762 281 761 282 761 283 760 284 760 286 758 287 758 288 757 289 757 291 755 292 755 293 754 294 754 296 752 297 752 298 751 299 751 300 750 301 750 303 748 304 748 305 747 306 747 308 745 309 745 310 744 311 744 312 743 313 743 315 741 316 741 317 740 318 740 319 739 320 739 322 737 323 737 324 736 325 736 326 735 327 735 328 734 329 734 330 733 331 733 332 732 333 732 334 731 337 731 338 730 348 730 349 731 353 731 354 732 359 732 360 733 363 733 364 734 368 734 369 735 374 735 375 736 379 736 380 737 384 737 385 738 389 738 390 739 394 739 395 740 399 740 400 741 404 741 405 742 409 742 410 743 414 743 415 744 419 744 420 745 424 745 425 746 429 746 430 747 434 747 435 748 439 748 440 749 444 749 445 750 449 750 450 751 454 751 455 752 459 752 460 753 464 753 465 754 469 754 470 755 474 755 475 756 479 756 480 757 485 757 486 758 490 758 491 759 494 759 495 760 499 760 500 761 505 761 506 762 509 762 510 763 514 763 515 764 519 764 520 765 525 765 526 766 532 766 533 767 559 767 560 766 566 766 567 765 571 765 572 764 576 764 577 763 580 763 581 762 584 762 585 761 587 761 588 760 591 760 592 759 593 759 594 758 596 758 597 757 599 757 600 756 601 756 602 755 604 755 605 754 606 754 607 753 608 753 609 752 610 752 611 751 612 751 613 750 614 750 615 749 616 749 617 748 618 748 620 746 621 746 622 745 623 745 625 743 626 743 627 742 628 742 630 740 631 740 634 737 635 737 637 735 638 735 641 732 642 732 645 729 646 729 649 726 650 726 652 724 653 724 656 721 657 721 660 718 661 718 664 715 665 715 668 712 669 712 671 710 672 710 675 707 676 707 678 705 679 705 681 703 682 703 685 700 686 700 688 698 689 698 692 695 693 695 695 693 696 693 699 690 700 690 702 688 703 688 706 685 707 685 709 683 710 683 712 681 713 681 716 678 717 678 719 676 720 676 723 673 724 673 726 671 727 671 730 668 731 668 733 666 734 666 737 663 738 663 740 661 741 661 744 658 745 658 747 656 748 656 751 653 752 653 754 651 755 651 758 648 759 648 761 646 762 646 765 643 766 643 768 641 769 641 772 638 773 638 775 636 776 636 779 633 780 633 782 631 783 631 786 628 787 628 789 626 790 626 793 623 794 623 796 621 797 621 800 618 801 618 803 616 804 616 807 613 808 613 810 611 811 611 814 608 815 608 817 606 818 606 821 603 822 603 824 601 825 601 828 598 829 598 831 596 832 596 835 593 836 593 839 590 840 590 842 588 843 588 845 586 846 586 851 581 852 581 856 577 856 576 859 573 859 572 861 570 861 569 862 568 862 567 863 566 863 564 864 563 864 561 865 560 865 558 866 557 866 538 865 537 865 534 864 533 864 531 863 530 863 528 862 527 862 526 861 525 861 524 860 523 860 522 859 521 859 520 856 517 856 516 847 507 846 507 843 504 842 504 841 503 840 503 839 502 838 502 837 501 836 501 835 500 834 500 833 499 831 499 830 498 828 498 827 497 825 497 824 496 818 496 817 495 807 495 806 496 801 496 800 497 796 497 795 498 793 498 792 499 791 499 790 500 788 500 787 501 786 501 785 502 784 502 783 503 782 503 781 504 780 504 778 506 777 506 776 507 775 507 774 508 773 508 771 510 770 510 769 511 768 511 767 512 766 512 764 514 763 514 762 515 761 515 760 516 759 516 757 518 756 518 755 519 754 519 752 521 751 521 750 522 749 522 748 523 747 523 746 524 745 524 743 526 742 526 741 527 740 527 738 529 737 529 736 530 735 530 734 531 733 531 731 533 730 533 729 534 728 534 727 535 726 535 724 537 723 537 722 538 721 538 720 539 719 539 717 541 716 541 715 542 714 542 713 543 712 543 711 544 710 544 708 546 707 546 706 547 705 547 703 549 702 549 701 550 700 550 699 551 698 551 696 553 695 553 694 554 693 554 692 555 691 555 689 557 688 557 687 558 686 558 685 559 684 559 682 561 681 561 680 562 679 562 678 563 677 563 675 565 674 565 673 566 672 566 671 567 670 567 668 569 667 569 666 570 665 570 664 571 663 571 661 573 660 573 659 574 658 573 658 561 657 560 657 557 656 556 656 554 655 553 655 551 654 550 654 549 652 547 652 546 651 545 651 544 647 540 647 539 643 535 642 535 639 532 638 532 636 530 635 530 633 528 632 528 631 527 630 527 629 526 627 526 626 525 625 525 624 524 622 524 621 523 618 523 617 522 614 522 613 521 508 521 507 520 499 520 498 519 494 519 493 518 490 518 489 517 487 517 486 516 484 516 483 515 481 515 480 514 479 514 478 513 476 513 475 512 473 512 472 511 471 511 470 510 468 510 467 509 466 509 465 508 463 508 462 507 461 507 460 506 458 506 457 505 456 505 455 504 453 504 452 503 450 503 449 502 448 502 447 501 445 501 444 500 442 500 441 499 438 499 437 498 435 498 434 497 431 497 430 496 427 496 426 495 423 495 422 494 417 494 416 493 408 493 407 492 Z" fill="black"/>
<path d="M 471 172 470 173 463 173 462 174 458 174 457 175 454 175 453 176 451 176 450 177 448 177 447 178 445 178 444 179 443 179 442 180 441 180 440 181 439 181 438 182 437 182 436 183 435 183 434 184 433 184 432 185 431 185 429 187 428 187 425 190 424 190 421 193 420 193 410 203 410 204 406 208 406 209 404 211 404 212 402 214 402 215 400 217 400 218 399 219 399 220 398 221 398 222 397 223 397 224 396 225 396 227 395 228 395 229 394 230 394 232 393 233 393 235 392 236 392 238 391 239 391 242 390 243 390 247 389 248 389 257 388 258 388 267 389 268 389 275 390 276 390 281 391 282 391 285 392 286 392 289 393 290 393 292 394 293 394 295 395 296 395 298 396 299 396 300 397 301 397 303 398 304 398 305 399 306 399 307 400 308 400 310 402 312 402 313 403 314 403 315 404 316 404 317 405 318 405 319 407 321 407 322 408 323 408 324 411 327 411 328 413 330 413 331 416 334 416 335 419 338 419 339 425 345 425 346 463 384 464 384 482 402 483 402 511 430 512 430 517 435 517 436 546 465 548 465 549 466 555 466 556 465 557 465 558 464 559 464 606 417 607 417 607 416 609 414 610 414 637 387 638 387 655 370 656 370 657 369 657 368 658 367 659 367 671 355 671 354 682 343 682 342 687 337 687 336 690 333 690 332 693 329 693 328 695 326 695 325 697 323 697 322 698 321 698 320 700 318 700 317 701 316 701 315 702 314 702 313 703 312 703 311 704 310 704 309 705 308 705 307 706 306 706 305 707 304 707 302 708 301 708 299 709 298 709 296 710 295 710 293 711 292 711 290 712 289 712 286 713 285 713 281 714 280 714 275 715 274 715 251 714 250 714 245 713 244 713 241 712 240 712 237 711 236 711 234 710 233 710 231 709 230 709 229 708 228 708 226 707 225 707 224 706 223 706 222 705 221 705 220 704 219 704 218 702 216 702 215 701 214 701 213 699 211 699 210 696 207 696 206 691 201 691 200 687 196 686 196 681 191 680 191 677 188 676 188 674 186 673 186 672 185 671 185 669 183 668 183 667 182 666 182 665 181 664 181 663 180 662 180 661 179 659 179 658 178 657 178 656 177 654 177 653 176 650 176 649 175 646 175 645 174 642 174 641 173 634 173 633 172 619 172 618 173 610 173 609 174 606 174 605 175 602 175 601 176 599 176 598 177 596 177 595 178 593 178 592 179 591 179 590 180 589 180 588 181 587 181 586 182 585 182 584 183 583 183 582 184 581 184 580 185 579 185 577 187 576 187 574 189 573 189 568 194 567 194 557 204 557 205 554 208 554 209 552 211 551 210 551 209 542 200 542 199 541 198 540 198 533 191 532 191 529 188 528 188 526 186 525 186 523 184 522 184 521 183 520 183 519 182 518 182 517 181 516 181 515 180 514 180 513 179 512 179 511 178 509 178 508 177 506 177 505 176 503 176 502 175 499 175 498 174 494 174 493 173 486 173 485 172 Z" fill="black"/>
</svg>