<svg xmlns="http://www.w3.org/2000/svg" width="1024" height="1024" viewBox="0 0 1024 1024">
<path d="M 815 526 814 527 808 527 807 528 804 528 803 529 801 529 800 530 798 530 797 531 796 531 795 532 794 532 793 533 792 533 791 534 790 534 789 535 788 535 787 536 786 536 785 537 784 537 783 538 782 538 780 540 779 540 778 541 777 541 776 542 775 542 773 544 772 544 771 545 770 545 769 546 768 546 766 548 765 548 764 549 763 549 761 551 760 551 759 552 758 552 757 553 756 553 754 555 753 555 752 556 751 556 750 557 749 557 747 559 746 559 745 560 744 560 743 561 742 561 740 563 739 563 738 564 737 564 736 565 735 565 733 567 732 567 731 568 730 568 729 569 728 569 726 571 725 571 724 572 723 572 722 573 721 573 719 575 718 575 717 576 716 576 715 577 714 577 712 579 711 579 710 580 709 580 708 581 707 581 705 583 704 583 703 584 702 584 701 585 700 585 699 586 698 586 696 588 695 588 694 589 693 589 692 590 691 590 689 592 688 592 686 594 685 594 684 595 683 595 682 596 681 596 679 598 678 598 677 599 676 599 675 600 674 600 672 602 671 602 670 603 669 603 668 604 667 604 665 606 664 606 663 607 662 607 661 608 660 608 658 610 657 609 657 608 656 607 656 606 655 605 655 604 654 603 654 602 653 601 653 600 651 598 651 597 649 595 649 594 641 586 640 586 636 582 635 582 634 581 633 581 631 579 629 579 628 578 627 578 626 577 625 577 624 576 622 576 621 575 619 575 618 574 614 574 613 573 608 573 607 572 561 572 560 571 492 571 491 570 484 570 483 569 481 569 480 568 477 568 476 567 473 567 472 566 470 566 469 565 466 565 465 564 462 564 461 563 459 563 458 562 455 562 454 561 452 561 451 560 449 560 448 559 446 559 445 558 443 558 442 557 440 557 439 556 437 556 436 555 434 555 433 554 432 554 431 553 429 553 428 552 426 552 425 551 423 551 422 550 419 550 418 549 416 549 415 548 412 548 411 547 409 547 408 546 405 546 404 545 401 545 400 544 397 544 396 543 393 543 392 542 388 542 387 541 383 541 382 540 337 540 336 541 332 541 331 542 328 542 327 543 324 543 323 544 321 544 320 545 318 545 317 546 315 546 314 547 313 547 312 548 311 548 310 549 309 549 308 550 307 550 306 551 305 551 304 552 303 552 302 553 301 553 299 555 298 555 296 557 295 557 293 559 292 559 289 562 288 562 282 568 281 568 250 599 249 599 234 614 233 614 205 642 204 642 203 643 190 643 189 644 187 644 186 645 185 645 184 646 183 646 181 648 180 648 177 651 176 651 174 653 173 653 171 655 170 655 168 657 167 657 164 660 163 660 161 662 160 662 158 664 157 664 155 666 154 666 151 669 150 669 148 671 147 671 145 673 144 673 141 676 140 676 138 678 137 678 130 685 130 686 128 688 128 689 127 690 127 692 126 693 126 695 125 696 125 705 126 706 126 709 127 710 127 712 128 713 128 714 130 716 130 717 132 719 132 720 134 722 134 723 138 727 138 728 141 731 141 732 144 735 144 736 147 739 147 740 150 743 150 744 153 747 153 748 156 751 156 752 159 755 159 756 162 759 162 760 165 763 165 764 168 767 168 768 170 770 170 771 173 774 173 775 176 778 176 779 180 783 180 784 182 786 182 787 185 790 185 791 188 794 188 795 191 798 191 799 194 802 194 803 197 806 197 807 200 810 200 811 204 815 204 816 207 819 207 820 210 823 210 824 213 827 213 828 216 831 216 832 219 835 219 836 222 839 222 840 226 844 226 845 228 847 228 848 232 852 232 853 235 856 235 857 238 860 238 861 242 865 242 866 250 874 251 874 252 875 253 875 254 876 255 876 256 877 257 877 258 878 270 878 271 877 273 877 274 876 275 876 276 875 277 875 278 874 279 874 280 873 281 873 283 871 284 871 287 868 288 868 292 864 293 864 296 861 297 861 300 858 301 858 304 855 305 855 308 852 309 852 312 849 313 849 317 845 318 845 322 841 323 841 332 832 332 831 333 830 333 829 334 828 334 827 335 826 335 824 336 823 336 811 337 810 338 810 342 806 343 806 346 803 347 803 349 801 350 801 352 799 353 799 354 798 355 798 356 797 357 797 358 796 359 796 360 795 362 795 363 794 365 794 366 793 368 793 369 792 389 792 390 793 400 793 401 794 409 794 410 795 418 795 419 796 428 796 429 797 438 797 439 798 448 798 449 799 458 799 459 800 469 800 470 801 479 801 480 802 490 802 491 803 500 803 501 804 511 804 512 805 521 805 522 806 532 806 533 807 545 807 546 808 558 808 559 809 577 809 578 808 587 808 588 807 596 807 597 806 602 806 603 805 606 805 607 804 609 804 610 803 613 803 614 802 615 802 616 801 618 801 619 800 620 800 621 799 623 799 624 798 625 798 626 797 627 797 628 796 629 796 630 795 631 795 632 794 633 794 635 792 636 792 637 791 638 791 640 789 641 789 642 788 643 788 645 786 646 786 648 784 649 784 652 781 653 781 655 779 656 779 658 777 659 777 661 775 662 775 665 772 666 772 669 769 670 769 672 767 673 767 676 764 677 764 680 761 681 761 685 757 686 757 690 753 691 753 695 749 696 749 699 746 700 746 704 742 705 742 709 738 710 738 715 733 716 733 721 728 722 728 726 724 727 724 732 719 733 719 738 714 739 714 743 710 744 710 749 705 750 705 755 700 756 700 760 696 761 696 765 692 766 692 772 686 773 686 778 681 779 681 783 677 784 677 790 671 791 671 795 667 796 667 802 661 803 661 808 656 809 656 814 651 815 651 820 646 821 646 826 641 827 641 833 635 834 635 839 630 840 630 845 625 846 625 851 620 852 620 862 610 862 609 865 606 865 605 867 603 867 602 868 601 868 600 869 599 869 598 870 597 870 596 871 595 871 593 872 592 872 590 873 589 873 584 874 583 874 571 873 570 873 566 872 565 872 562 871 561 871 559 870 558 870 557 869 556 869 555 868 554 868 553 867 552 867 551 865 549 865 548 861 544 861 543 860 543 855 538 854 538 852 536 851 536 849 534 848 534 847 533 846 533 845 532 844 532 843 531 841 531 840 530 839 530 838 529 835 529 834 528 832 528 831 527 824 527 823 526 Z" fill="black"/>
<path d="M 323 145 322 146 319 146 318 147 316 147 315 148 313 148 312 149 311 149 310 150 309 150 308 151 307 151 306 152 305 152 302 155 301 155 293 163 293 164 291 166 291 167 290 168 290 169 289 170 289 171 288 172 288 173 287 174 287 176 286 177 286 180 285 181 285 186 284 187 284 222 285 223 285 391 284 392 284 393 285 394 285 395 284 396 284 398 285 399 285 400 284 401 284 455 285 456 285 460 286 461 286 463 287 464 287 465 288 466 288 468 289 469 289 470 291 472 291 473 292 474 292 475 303 486 304 486 305 487 306 487 307 488 308 488 310 490 312 490 313 491 315 491 316 492 318 492 319 493 325 493 326 494 607 494 608 493 614 493 615 494 616 493 762 493 763 494 782 494 783 493 794 493 795 492 798 492 799 491 801 491 802 490 803 490 804 489 806 489 808 487 809 487 810 486 811 486 814 483 815 483 822 476 822 475 824 473 824 472 826 470 826 469 827 468 827 467 828 466 828 464 829 463 829 461 830 460 830 458 831 457 831 248 832 247 832 187 831 186 831 181 830 180 830 178 829 177 829 175 828 174 828 172 827 171 827 170 826 169 826 168 824 166 824 165 822 163 822 162 815 155 814 155 812 153 811 153 809 151 808 151 807 150 806 150 805 149 804 149 803 148 801 148 800 147 798 147 797 146 794 146 793 145 Z" fill="black"/>
</svg>