<?xml version="1.0" standalone="no"?>
<!DOCTYPE svg PUBLIC "-//W3C//DTD SVG 20010904//EN"
 "http://www.w3.org/TR/2001/REC-SVG-20010904/DTD/svg10.dtd">
<svg version="1.0" xmlns="http://www.w3.org/2000/svg"
 width="900.000000pt" height="900.000000pt" viewBox="0 0 900.000000 900.000000"
 preserveAspectRatio="xMidYMid meet">
<metadata>
Created by potrace 1.10, written by Peter Selinger 2001-2011
</metadata>
<g transform="translate(0.000000,900.000000) scale(0.100000,-0.100000)"
fill="#000000" stroke="none">
<path d="M2835 7707 c-27 -5 -63 -15 -78 -23 -16 -8 -33 -14 -37 -14 -36 0
-180 -137 -180 -171 0 -9 -6 -22 -14 -28 -7 -6 -17 -35 -20 -64 -10 -72 -11
-2410 -1 -2469 4 -26 13 -53 21 -59 8 -6 14 -19 14 -29 0 -23 110 -133 157
-157 21 -11 67 -28 102 -37 62 -17 168 -18 2106 -12 2177 6 2090 4 2185 52 41
21 146 122 160 156 5 12 14 30 19 38 29 49 31 118 35 1280 4 1047 3 1191 -11
1235 -8 28 -19 57 -24 65 -5 8 -15 29 -22 45 -23 49 -136 155 -166 155 -7 0
-22 6 -34 14 -12 8 -42 17 -67 20 -68 10 -4087 12 -4145 3z m4165 -242 c39
-25 57 -45 83 -92 16 -29 17 -108 17 -1192 l0 -1160 -21 -41 c-28 -52 -69 -91
-116 -108 -31 -11 -411 -14 -2065 -18 -1840 -5 -2029 -4 -2050 10 -12 9 -29
16 -38 16 -26 1 -87 73 -104 124 -14 45 -16 163 -16 1187 0 1064 1 1139 18
1170 25 47 63 89 97 108 28 15 198 16 2055 21 1114 3 2043 4 2065 1 21 -2 55
-14 75 -26z"/>
<path d="M3730 7113 c-43 -15 -109 -45 -152 -69 -69 -40 -198 -212 -198 -265
0 -9 -7 -33 -15 -52 -29 -71 -15 -207 31 -300 8 -16 14 -33 14 -39 0 -5 21
-36 46 -69 71 -92 162 -154 269 -182 54 -14 209 -14 271 0 206 47 374 264 374
483 0 90 -29 187 -83 275 -20 33 -121 137 -142 146 -11 5 -35 18 -53 29 -96
58 -262 78 -362 43z m208 -212 c29 -10 58 -23 65 -30 6 -6 15 -11 19 -11 12 0
57 -49 82 -90 12 -19 30 -61 40 -93 17 -56 17 -61 0 -110 -19 -56 -77 -151
-97 -161 -7 -4 -25 -15 -42 -26 -36 -24 -37 -24 -99 -39 -59 -14 -136 -1 -191
32 -66 40 -110 95 -136 170 -23 65 -23 83 -1 159 24 85 101 166 187 195 77 26
108 27 173 4z"/>
<path d="M4939 6634 c-39 -25 -54 -67 -39 -117 22 -82 -34 -77 882 -77 905 0
849 -4 883 71 20 44 14 68 -26 109 l-31 30 -821 0 c-733 -1 -825 -2 -848 -16z"/>
<path d="M3605 6049 c-33 -3 -76 -12 -95 -19 -47 -17 -102 -40 -120 -51 -8 -5
-26 -14 -39 -19 -30 -13 -163 -146 -182 -182 -76 -144 -87 -179 -99 -320 -9
-99 -9 -136 1 -165 16 -52 47 -81 89 -83 19 -1 350 -2 736 -1 l701 1 36 35
c37 36 37 36 37 123 0 94 -23 240 -46 285 -8 16 -14 37 -14 47 0 9 -7 23 -15
30 -8 7 -15 17 -15 22 0 31 -145 186 -195 209 -11 5 -38 20 -60 34 -22 13 -48
24 -58 25 -10 0 -29 7 -42 16 -21 13 -66 16 -292 17 -147 1 -295 -1 -328 -4z
m575 -221 c13 -10 33 -18 42 -18 27 0 161 -138 185 -190 26 -58 53 -150 53
-181 l0 -24 -597 1 c-583 1 -598 1 -596 20 1 10 8 44 16 74 33 125 87 202 181
263 108 69 149 76 456 74 206 -2 238 -4 260 -19z"/>
<path d="M5210 6030 c-146 -3 -271 -9 -278 -13 -6 -5 -19 -22 -28 -39 -20 -39
-12 -87 22 -119 l26 -24 671 -2 c370 -1 685 1 702 6 19 4 41 23 59 49 l29 41
-18 41 c-32 72 -23 70 -497 68 -233 -1 -542 -5 -688 -8z"/>
<path d="M7070 4345 c-64 -18 -184 -77 -310 -154 -19 -11 -44 -25 -55 -31 -11
-6 -33 -19 -50 -30 -16 -10 -52 -31 -80 -45 -27 -14 -63 -34 -80 -45 -16 -11
-39 -24 -50 -30 -11 -6 -47 -26 -80 -45 -33 -19 -69 -40 -80 -45 -11 -6 -33
-19 -50 -30 -16 -10 -52 -31 -80 -45 -27 -14 -63 -34 -80 -45 -16 -11 -39 -24
-50 -30 -11 -6 -33 -19 -50 -30 -16 -11 -39 -24 -50 -30 -24 -13 -46 -27 -103
-63 -48 -31 -72 -25 -72 18 0 12 -7 28 -15 35 -8 7 -15 17 -15 22 0 33 -124
145 -200 180 -113 51 -147 54 -737 63 -458 6 -545 11 -608 33 -16 6 -57 18
-90 27 -33 9 -73 21 -90 27 -16 6 -43 13 -60 15 -16 3 -35 10 -42 15 -7 6 -27
14 -45 18 -40 10 -97 29 -121 42 -10 5 -37 13 -60 17 -23 5 -55 14 -72 19 -42
14 -112 32 -165 42 -25 4 -61 13 -80 19 -53 17 -336 14 -396 -4 -27 -8 -61
-15 -76 -15 -15 0 -44 -7 -65 -16 -21 -9 -51 -22 -68 -29 -16 -7 -37 -16 -45
-19 -8 -4 -24 -12 -35 -19 -128 -78 -161 -108 -604 -536 -140 -135 -261 -251
-269 -257 -9 -7 -33 -9 -55 -6 -52 7 -111 -14 -177 -63 -58 -43 -155 -110
-195 -135 -49 -31 -110 -75 -113 -82 -2 -5 -9 -8 -16 -8 -6 0 -40 -30 -74 -66
-66 -71 -69 -80 -63 -194 3 -47 50 -138 90 -174 12 -11 32 -39 46 -62 14 -24
30 -44 35 -44 6 0 10 -6 10 -14 0 -8 3 -16 8 -18 4 -1 20 -22 36 -46 16 -23
33 -42 37 -42 5 0 9 -6 9 -14 0 -8 3 -16 8 -18 4 -1 25 -27 46 -57 21 -30 42
-59 47 -65 5 -6 82 -108 170 -226 88 -118 168 -224 177 -235 10 -11 28 -36 42
-55 13 -19 34 -45 46 -58 12 -12 34 -41 50 -65 16 -23 31 -44 35 -47 3 -3 40
-51 82 -107 42 -56 93 -114 113 -130 39 -29 96 -53 128 -53 22 0 84 18 106 31
8 5 22 12 30 16 19 8 249 181 271 203 9 9 46 38 81 64 35 26 77 62 92 81 36
43 64 122 56 155 -11 42 -1 57 74 107 69 47 101 64 179 97 43 18 199 22 243 6
14 -6 90 -15 168 -20 77 -5 157 -14 176 -20 19 -5 67 -10 106 -10 38 0 96 -5
127 -10 30 -6 113 -15 184 -20 70 -5 153 -14 183 -19 30 -5 87 -10 125 -10 39
-1 124 -8 190 -16 170 -21 404 -19 535 4 117 21 198 47 260 82 8 5 25 13 38
19 12 5 48 26 80 47 31 21 65 42 74 48 70 43 371 264 388 285 3 3 34 28 70 55
36 27 72 56 81 64 9 9 47 41 84 71 38 30 76 62 84 70 9 8 37 31 61 50 41 31
85 67 150 124 14 12 45 37 70 56 25 19 52 41 61 49 22 21 55 49 114 97 55 44
100 81 124 105 9 8 36 30 61 49 25 19 52 41 61 49 25 24 69 62 124 105 28 22
66 55 85 72 19 18 60 51 90 75 75 58 197 181 210 210 5 13 14 31 19 39 34 55
43 96 43 193 0 95 -11 144 -43 197 -5 8 -13 24 -18 36 -27 62 -202 182 -291
199 -66 13 -204 13 -250 0z m200 -208 c60 -17 99 -39 131 -74 50 -55 59 -79
59 -153 0 -96 -28 -139 -155 -245 -27 -22 -65 -54 -84 -71 -20 -17 -162 -136
-316 -263 -154 -128 -291 -242 -305 -254 -107 -91 -212 -178 -250 -206 -25
-19 -49 -39 -55 -46 -5 -6 -38 -32 -72 -58 -34 -26 -68 -53 -75 -60 -7 -7 -42
-35 -78 -61 -36 -27 -69 -54 -75 -61 -13 -15 -446 -339 -465 -348 -8 -4 -35
-18 -59 -32 -24 -14 -50 -25 -56 -25 -7 0 -18 -7 -25 -15 -7 -8 -21 -15 -30
-15 -10 0 -31 -6 -47 -14 -82 -40 -126 -46 -349 -46 -121 0 -235 4 -254 10
-19 5 -102 14 -185 19 -82 5 -163 14 -178 20 -16 6 -63 11 -105 11 -42 0 -122
7 -177 15 -55 8 -130 15 -167 15 -37 0 -79 5 -94 10 -15 6 -70 13 -123 16 -53
4 -134 12 -180 20 -113 19 -271 18 -318 -1 -19 -8 -44 -15 -55 -15 -11 0 -32
-6 -46 -14 -15 -8 -34 -17 -42 -20 -8 -4 -28 -15 -45 -26 -16 -11 -39 -24 -50
-29 -11 -5 -40 -27 -65 -50 -47 -42 -70 -51 -70 -26 0 13 -230 329 -255 350
-7 6 -75 93 -151 195 -76 102 -143 190 -149 195 -7 6 -22 27 -34 48 -13 20
-27 37 -32 37 -5 0 -9 7 -9 15 0 8 -4 15 -10 15 -5 0 -17 14 -25 31 -9 16 -24
38 -33 47 -9 9 -39 46 -66 82 -27 36 -62 79 -79 97 -35 38 -33 42 53 119 36
31 121 112 190 179 194 189 341 329 390 371 25 22 57 50 70 63 14 12 34 27 45
32 11 5 34 18 50 29 17 11 37 22 45 26 8 3 29 11 45 18 102 45 393 63 485 31
23 -8 57 -15 74 -15 17 -1 42 -7 56 -15 14 -8 35 -14 47 -15 12 0 37 -6 55
-14 51 -21 100 -38 128 -43 14 -2 39 -10 55 -18 52 -22 99 -37 140 -44 23 -4
47 -11 55 -16 7 -4 30 -12 49 -16 20 -4 50 -12 66 -17 149 -51 143 -50 796
-60 463 -6 509 -9 526 -24 11 -10 26 -18 33 -18 21 0 99 -69 128 -114 23 -35
27 -51 27 -116 0 -67 -4 -80 -30 -120 -17 -24 -55 -63 -85 -85 -100 -75 -101
-75 -876 -75 -659 -1 -680 -1 -702 -20 -26 -21 -39 -81 -28 -123 4 -16 21 -33
46 -46 40 -21 49 -21 628 -20 680 1 862 10 937 44 17 8 37 16 45 20 47 19 139
87 175 131 41 49 94 144 95 170 0 24 18 41 75 71 22 11 56 30 75 42 19 11 44
25 55 31 11 6 34 19 50 30 17 11 39 24 50 30 11 6 34 19 50 30 17 10 53 31 80
45 28 14 64 34 80 45 17 11 39 24 50 30 23 11 103 57 155 88 19 12 58 33 85
47 28 14 77 41 110 60 33 19 69 39 80 45 11 6 34 19 50 30 17 11 39 24 50 30
11 6 34 19 50 30 17 11 40 24 52 29 11 5 24 15 28 20 3 6 14 11 24 11 9 0 23
6 29 13 12 11 103 33 147 35 11 1 40 -4 65 -11z m-1532 -619 c-5 -32 -28 -35
-28 -4 0 17 5 26 16 26 10 0 14 -7 12 -22z m-3997 -408 c10 -6 19 -15 19 -21
0 -9 139 -198 166 -226 7 -7 22 -28 34 -48 12 -19 25 -35 29 -35 4 0 24 -27
45 -60 21 -33 41 -60 45 -60 3 0 22 -24 41 -53 19 -28 39 -56 45 -62 6 -5 40
-48 75 -94 35 -47 72 -93 82 -103 10 -10 18 -21 18 -26 0 -4 10 -18 23 -32 12
-14 84 -106 159 -205 75 -99 157 -202 181 -229 54 -60 51 -67 -40 -127 -34
-22 -63 -44 -65 -48 -2 -4 -50 -42 -108 -86 -58 -43 -113 -87 -123 -97 -29
-30 -59 -22 -94 27 -18 24 -33 47 -33 51 0 6 -54 78 -77 102 -7 7 -13 17 -13
20 0 4 -14 23 -32 42 -17 19 -140 179 -272 355 -132 176 -244 325 -248 330 -5
6 -59 78 -120 160 -61 83 -126 167 -145 188 -18 20 -33 43 -33 50 0 11 82 77
96 77 4 0 122 85 151 110 7 5 15 10 18 10 3 0 36 23 72 50 71 54 75 55 104 40z"/>
</g>
</svg>
